<svg width="20" height="20" viewBox="0 0 20 20" fill="none" xmlns="http://www.w3.org/2000/svg">
<path fill-rule="evenodd" clip-rule="evenodd" d="M9.16675 14.6548V3.33333C9.16675 2.8731 9.53984 2.5 10.0001 2.5C10.4603 2.5 10.8334 2.8731 10.8334 3.33333V14.6548L14.4108 11.0774C14.7363 10.752 15.2639 10.752 15.5893 11.0774C15.9148 11.4028 15.9148 11.9305 15.5893 12.2559L10.5893 17.2559C10.5094 17.3358 10.4174 17.3961 10.3191 17.4368C10.2208 17.4775 10.1131 17.5 10.0001 17.5C9.88709 17.5 9.77935 17.4775 9.6811 17.4368C9.58281 17.3961 9.49072 17.3358 9.41083 17.2559L4.41083 12.2559C4.08539 11.9305 4.08539 11.4028 4.41083 11.0774C4.73626 10.752 5.2639 10.752 5.58934 11.0774L9.16675 14.6548Z" fill="#687F8F"/>
<mask id="mask0_1753_701" style="mask-type:luminance" maskUnits="userSpaceOnUse" x="4" y="2" width="12" height="16">
<path fill-rule="evenodd" clip-rule="evenodd" d="M9.16675 14.6548V3.33333C9.16675 2.8731 9.53984 2.5 10.0001 2.5C10.4603 2.5 10.8334 2.8731 10.8334 3.33333V14.6548L14.4108 11.0774C14.7363 10.752 15.2639 10.752 15.5893 11.0774C15.9148 11.4028 15.9148 11.9305 15.5893 12.2559L10.5893 17.2559C10.5094 17.3358 10.4174 17.3961 10.3191 17.4368C10.2208 17.4775 10.1131 17.5 10.0001 17.5C9.88709 17.5 9.77935 17.4775 9.6811 17.4368C9.58281 17.3961 9.49072 17.3358 9.41083 17.2559L4.41083 12.2559C4.08539 11.9305 4.08539 11.4028 4.41083 11.0774C4.73626 10.752 5.2639 10.752 5.58934 11.0774L9.16675 14.6548Z" fill="white"/>
</mask>
<g mask="url(#mask0_1753_701)">
<rect width="20" height="20" fill="#687F8F"/>
</g>
</svg>
